<svg width="300" height="103" viewBox="0 0 300 103" fill="none" xmlns="http://www.w3.org/2000/svg">
<path fill-rule="evenodd" clip-rule="evenodd" d="M267 34C253.667 24 273.667 17.3334 267 34C247 37.3334 250.333 20.6667 267 34C243.667 37.3334 260.333 50.6667 267 37.3334C263.667 40.6667 263.667 44 267 47.3334C267 50.6667 267 57.3334 267 60.6667C267 57.3334 267 54 267 47.3334C263.667 60.6667 263.667 67.3334 260.333 77.3334C260.333 64 257 47.3334 250.333 30.6667C250.333 57.3334 253.667 74 257 84C253.667 77.3334 247 67.3334 240.333 57.3334C247 84 253.667 94 257 97.3334C257 97.3334 253.667 97.3334 250.333 97.3334C243.667 97.3334 243.667 97.3334 237 94C230.333 94 227 97.3334 217 97.3334C220.333 90.6667 227 77.3334 237 50.6667C230.333 60.6667 223.667 67.3334 220.333 77.3334C220.333 70.6667 217 60.6667 217 54C213.667 54 213.667 57.3334 213.667 57.3334V50.6667C213.667 47.3334 213.667 37.3334 213.667 34C217 37.3334 227 34 217 24C237 14 227 34 217 24C233.667 17.3334 220.333 4.00003 213.667 24C197 14 217 7.33336 213.667 24C193.667 34 200.333 17.3334 213.667 24C197 34 210.333 44 213.667 27.3334V30.6667C213.667 37.3334 210.333 47.3334 210.333 50.6667L213.667 64C213.667 70.6667 210.333 74 210.333 80.6667C207 74 203.667 64 200.333 57.3334C197 50.6667 197 44 197 40.6667C193.667 37.3334 193.667 27.3334 197 24C200.333 27.3334 207 20.6667 193.667 14C207 20.6667 213.667 0.666697 193.667 10.6667C197 -9.3333 210.333 4.00003 193.667 10.6667C197 -2.66664 177 4.00003 193.667 14C173.667 24 180.333 7.33336 193.667 14C190.333 34 177 24 193.667 14C193.667 17.3334 193.667 17.3334 193.667 20.6667C193.667 24 193.667 37.3334 193.667 40.6667C197 44 200.333 67.3334 200.333 74C197 67.3334 193.667 60.6667 187 54C193.667 80.6667 200.333 94 207 97.3334C203.667 97.3334 200.333 100.667 193.667 97.3334C187 97.3334 187 94 180.333 94C177 90.6667 170.333 90.6667 163.667 94C167 87.3334 173.667 74 180.333 50.6667C173.667 60.6667 167 67.3334 163.667 77.3334C163.667 70.6667 163.667 67.3334 163.667 60.6667C163.667 57.3334 163.667 54 163.667 47.3334C167 50.6667 170.333 47.3334 167 37.3334C187 40.6667 177 54 167 37.3334C177 24 190.333 40.6667 167 37.3334C157 20.6667 180.333 24 167 37.3334C157 20.6667 147 34 163.667 37.3334C143.667 34 157 50.6667 167 37.3334C160.333 44 160.333 47.3334 163.667 47.3334C163.667 50.6667 163.667 54 163.667 57.3334C160.333 54 160.333 54 160.333 50.6667C157 57.3334 157 67.3334 157 74H153.667C153.667 70.6667 153.667 44 153.667 40.6667C153.667 34 150.333 24 147 20.6667C147 17.3334 147 17.3334 147 14C167 17.3334 153.667 30.6667 147 14C170.333 20.6667 160.333 0.666697 147 10.6667C140.333 -2.66664 160.333 0.666697 147 10.6667C127 7.33336 140.333 -5.99997 147 10.6667C123.667 4.00003 133.667 20.6667 147 14C137 20.6667 143.667 27.3334 147 20.6667C150.333 27.3334 150.333 34 150.333 40.6667C150.333 44 153.667 60.6667 153.667 70.6667C150.333 64 147 54 143.667 47.3334C143.667 60.6667 147 70.6667 147 80.6667C143.667 70.6667 137 60.6667 130.333 50.6667C137 77.3334 143.667 90.6667 150.333 97.3334C143.667 97.3334 137 97.3334 130.333 97.3334C123.667 97.3334 110.333 97.3334 103.667 94C110.333 87.3334 117 74 123.667 50.6667C117 57.3334 113.667 64 107 70.6667C110.333 64 113.667 47.3334 117 44C117 37.3334 117 27.3334 117 20.6667C120.333 20.6667 120.333 17.3334 120.333 17.3334C120.333 34 133.667 27.3334 120.333 14C133.667 10.6667 137 27.3334 120.333 14C117 -2.66664 137 7.33336 120.333 14C117 -5.99997 103.667 4.00003 117 14C103.667 20.6667 100.333 0.666697 117 14C107 20.6667 113.667 27.3334 117 24C117 27.3334 117 37.3334 113.667 40.6667C113.667 44 110.333 60.6667 107 70.6667C107 60.6667 107 50.6667 103.667 37.3334C100.333 44 100.333 50.6667 100.333 54C100.333 47.3334 93.6666 37.3334 90.3333 34V30.6667C97 44 107 27.3334 90.3333 27.3334C97 10.6667 110.333 24 90.3333 27.3334C100.333 7.33336 80.3333 14 87 27.3334C77 14 70.3333 30.6667 87 30.6667C80.3333 47.3334 67 34 87 30.6667C80.3333 47.3334 90.3333 44 90.3333 37.3334C93.6666 40.6667 97 50.6667 100.333 54V60.6667C100.333 64 97 70.6667 97 74C97 67.3334 90.3333 57.3334 83.6666 44C87 60.6667 90.3333 70.6667 90.3333 77.3334C87 70.6667 80.3333 57.3334 73.6666 47.3334C80.3333 74 87 87.3334 90.3333 94C80.3333 94 60.3333 94 47 94C50.3333 90.6667 53.6666 77.3334 63.6666 57.3334C53.6666 67.3334 47 77.3334 43.6666 84C47 74 50.3333 54 50.3333 30.6667C47 37.3334 43.6666 47.3334 43.6666 57.3334L40.3333 50.6667C40.3333 44 43.6666 37.3334 43.6666 30.6667C47 34 53.6666 30.6667 43.6666 24C57 30.6667 63.6666 14 43.6666 20.6667C47 0.666697 60.3333 14 43.6666 20.6667C47 4.00003 27 10.6667 40.3333 20.6667C27 14 20.3333 30.6667 40.3333 24C23.6666 30.6667 37 40.6667 43.6666 24C40.3333 27.3334 40.3333 27.3334 43.6666 30.6667C40.3333 34 40.3333 44 40.3333 50.6667V60.6667C40.3333 67.3334 40.3333 70.6667 40.3333 74C40.3333 67.3334 33.6667 40.6667 30.3333 30.6667C27 40.6667 30.3333 70.6667 33.6666 77.3334C30.3333 77.3334 30.3333 77.3334 30.3333 74C27 67.3334 23.6666 47.3334 23.6666 40.6667C23.6666 37.3334 17 27.3334 17 20.6667C17 20.6667 17 17.3334 13.6666 17.3334C23.6666 34 33.6666 17.3334 17 14C37 17.3334 27 4.00003 13.6666 14C6.99998 0.666697 27 0.666697 13.6666 14C-6.33335 10.6667 3.66665 -2.66664 13.6666 14C-9.66668 10.6667 3.66665 27.3334 13.6666 17.3334C3.66665 27.3334 13.6666 27.3334 17 24C17 27.3334 20.3333 37.3334 20.3333 40.6667C23.6667 44 27 60.6667 27 70.6667C20.3333 60.6667 13.6666 50.6667 10.3333 44C17 67.3334 27 87.3334 33.6666 94C27 97.3334 20.3333 97.3334 17 97.3334C27 100.667 70.3333 97.3334 77 97.3334C93.6666 97.3334 113.667 100.667 130.333 100.667C143.667 100.667 177 97.3334 197 100.667C207 100.667 267 103 267 103C277 103 310.333 100.667 273.667 100.667C270.333 100.667 263.667 100.667 263.667 100.667C267 94 273.667 84 283.667 57.3334C280.333 60.6667 280.333 64 277 67.3334C277 57.3334 280.333 44 280.333 40.6667V37.3334C280.333 34 283.667 27.3334 283.667 24C287 27.3334 297 24 287 14C310.333 7.33336 297 24 287 14C307 7.33336 297 -5.99997 287 10.6667C293.667 -2.66664 273.667 0.666697 287 14C273.667 4.00003 263.667 17.3334 283.667 14C267 17.3334 277 30.6667 287 14C283.667 17.3334 283.667 17.3334 283.667 20.6667C283.667 24 280.333 30.6667 280.333 37.3334C277 34 273.667 34 267 34C273.667 20.6667 290.333 30.6667 267 34ZM273.667 67.3334C273.667 74 270.333 77.3334 270.333 80.6667C270.333 77.3334 270.333 70.6667 267 67.3334L270.333 64C270.333 60.6667 270.333 50.6667 267 47.3334C270.333 47.3334 273.667 40.6667 267 37.3334C273.667 40.6667 277 40.6667 277 40.6667C277 47.3334 277 60.6667 273.667 67.3334Z" fill="white"/>
</svg>
