<?xml version="1.0" standalone="no"?>
<!DOCTYPE svg PUBLIC "-//W3C//DTD SVG 20010904//EN"
 "http://www.w3.org/TR/2001/REC-SVG-20010904/DTD/svg10.dtd">
<svg version="1.0" xmlns="http://www.w3.org/2000/svg"
 width="260.000000pt" height="260.000000pt" viewBox="0 0 260.000000 260.000000"
 preserveAspectRatio="xMidYMid meet">
<metadata>
Created by potrace 1.14, written by Peter Selinger 2001-2017
</metadata>
<g transform="translate(0.000000,260.000000) scale(0.100000,-0.100000)"
fill="#000000" stroke="none">
<path d="M1160 2061 c0 -6 4 -13 10 -16 6 -3 7 1 4 9 -7 18 -14 21 -14 7z"/>
<path d="M1310 2026 c0 -2 7 -20 15 -40 l16 -37 37 31 c20 16 43 30 52 31 10
0 9 3 -5 9 -20 8 -115 14 -115 6z"/>
<path d="M1110 2006 c-25 -7 -63 -21 -85 -30 -22 -10 -73 -23 -113 -31 -116
-23 -194 -66 -292 -165 -94 -93 -147 -180 -174 -286 -23 -89 -21 -264 3 -345
11 -35 26 -92 35 -127 38 -150 149 -306 290 -406 82 -58 243 -130 341 -152
108 -25 302 -25 410 0 98 22 259 93 340 151 145 103 251 255 295 425 11 41 27
100 35 130 20 73 20 244 -1 324 -27 106 -80 193 -174 286 -99 99 -176 142
-295 165 -42 8 -98 25 -123 37 l-47 23 -32 -36 c-28 -31 -63 -95 -63 -114 0
-3 31 -5 68 -5 129 0 241 -46 314 -128 40 -47 25 -52 -69 -21 -45 14 -100 22
-161 24 l-92 3 6 -52 c5 -41 14 -59 44 -90 l37 -38 -3 45 c-2 25 -8 57 -14 71
-8 23 -6 26 16 32 37 10 139 -5 201 -28 30 -11 65 -18 78 -15 49 9 106 -99
131 -246 15 -87 15 -100 0 -150 -9 -30 -29 -69 -46 -87 -27 -29 -35 -32 -69
-27 -21 2 -42 2 -47 -2 -14 -9 -34 -59 -34 -81 0 -11 -14 -49 -30 -84 -42 -89
-131 -153 -260 -188 -133 -36 -170 -41 -272 -35 -183 12 -243 38 -349 148 -65
69 -66 69 -120 69 -97 0 -145 49 -199 201 -52 148 -40 252 50 439 4 8 2 26 -3
40 -14 38 -3 71 39 114 63 65 145 89 224 67 25 -7 25 -7 -10 -26 -19 -10 -53
-31 -75 -48 -22 -17 -42 -32 -44 -34 -2 -2 -2 -6 1 -9 4 -3 43 6 88 20 85 27
120 32 120 17 0 -9 109 50 110 59 1 20 -145 70 -203 70 -41 0 -42 19 -2 36 84
35 256 35 325 0 l32 -15 -7 27 c-11 44 -40 87 -61 89 -10 1 -39 -4 -64 -11z
m89 -42 c2 -2 2 -6 -1 -9 -9 -9 -58 6 -58 17 0 9 49 3 59 -8z m606 -88 c84
-40 156 -124 141 -163 -4 -10 -11 -11 -25 -3 -29 15 -34 13 -29 -12 4 -16 -28
9 -104 82 -59 58 -108 108 -108 113 0 16 78 5 125 -17z"/>
<path d="M1218 1839 c-14 -15 -15 -19 -2 -30 8 -6 14 -20 14 -30 0 -10 12 -25
27 -32 l26 -14 -25 -17 c-13 -9 -56 -20 -95 -25 -78 -10 -110 -24 -200 -87
-34 -24 -66 -44 -72 -44 -6 0 -11 -4 -11 -9 0 -21 18 -19 54 5 50 34 69 26 60
-23 l-6 -38 53 57 c65 69 125 98 210 101 58 2 63 0 83 -27 11 -16 39 -52 62
-80 60 -75 134 -120 134 -81 0 8 -6 12 -14 9 -22 -8 -110 79 -153 150 -20 34
-43 69 -51 78 -8 10 -12 24 -9 33 4 8 2 15 -4 15 -5 0 -21 11 -35 25 -18 18
-23 31 -18 49 7 30 -6 38 -28 15z"/>
<path d="M1357 1835 c-2 -14 0 -28 5 -31 5 -3 7 -13 4 -21 -4 -9 -1 -13 10
-11 8 2 15 8 15 13 0 6 7 21 16 35 9 15 10 20 2 13 -17 -17 -29 -16 -29 1 0
26 -18 26 -23 1z"/>
</g>
</svg>
